<svg xmlns="http://www.w3.org/2000/svg" xmlns:xlink="http://www.w3.org/1999/xlink" width="1353" zoomAndPan="magnify" viewBox="0 0 1014.75 1014.749987" height="1353" preserveAspectRatio="xMidYMid meet" version="1.0"><defs><clipPath id="42a3ab116d"><path d="M 0 0 L 1014.445312 0 L 1014.445312 1014.445312 L 0 1014.445312 Z M 0 0 " clip-rule="nonzero"/></clipPath><clipPath id="b5535a23b3"><path d="M 63.734375 0 L 950.710938 0 C 985.910156 0 1014.445312 28.535156 1014.445312 63.734375 L 1014.445312 950.710938 C 1014.445312 985.910156 985.910156 1014.445312 950.710938 1014.445312 L 63.734375 1014.445312 C 28.535156 1014.445312 0 985.910156 0 950.710938 L 0 63.734375 C 0 28.535156 28.535156 0 63.734375 0 Z M 63.734375 0 " clip-rule="nonzero"/></clipPath><clipPath id="367d4d660b"><path d="M 0 0 L 1014.445312 0 L 1014.445312 1014.445312 L 0 1014.445312 Z M 0 0 " clip-rule="nonzero"/></clipPath><clipPath id="03f8f1720d"><path d="M 63.734375 0 L 950.710938 0 C 985.910156 0 1014.445312 28.535156 1014.445312 63.734375 L 1014.445312 950.710938 C 1014.445312 985.910156 985.910156 1014.445312 950.710938 1014.445312 L 63.734375 1014.445312 C 28.535156 1014.445312 0 985.910156 0 950.710938 L 0 63.734375 C 0 28.535156 28.535156 0 63.734375 0 Z M 63.734375 0 " clip-rule="nonzero"/></clipPath><clipPath id="d2146a2023"><rect x="0" width="1015" y="0" height="1015"/></clipPath><clipPath id="c6ae229c73"><path d="M 84.617188 137 L 929.660156 137 L 929.660156 877 L 84.617188 877 Z M 84.617188 137 " clip-rule="nonzero"/></clipPath></defs><g clip-path="url(#42a3ab116d)"><g clip-path="url(#b5535a23b3)"><g transform="matrix(1, 0, 0, 1, -0, -0.000000000000096678)"><g clip-path="url(#d2146a2023)"><g clip-path="url(#367d4d660b)"><g clip-path="url(#03f8f1720d)"><path fill="#87ff65" d="M 0 0 L 1014.445312 0 L 1014.445312 1014.445312 L 0 1014.445312 Z M 0 0 " fill-opacity="1" fill-rule="nonzero"/></g></g></g></g></g></g><g clip-path="url(#c6ae229c73)"><path fill="#000000" d="M 343.246094 507.136719 L 111.023438 507.136719 C 96.5 507.136719 84.617188 519.023438 84.617188 533.546875 L 84.617188 586.359375 C 84.617188 600.886719 96.5 612.769531 111.023438 612.769531 L 345.722656 612.769531 C 371.964844 612.769531 396.558594 630.757812 400.847656 656.671875 C 406.292969 689.679688 380.878906 718.398438 348.691406 718.398438 C 325.421875 718.398438 305.617188 703.214844 298.519531 682.253906 C 295.050781 671.855469 284.324219 665.582031 273.429688 665.582031 L 219.296875 665.582031 C 203.121094 665.582031 190.082031 680.109375 193.054688 695.953125 C 207.246094 768.738281 271.617188 824.027344 348.527344 824.027344 C 442.769531 824.027344 518.03125 741.339844 505.652344 644.789062 C 495.585938 564.90625 423.625 507.136719 343.246094 507.136719 Z M 111.023438 454.324219 L 665.582031 454.324219 C 764.117188 454.324219 841.855469 363.878906 820.398438 261.714844 C 807.855469 201.964844 759.496094 153.605469 699.75 141.0625 C 608.3125 121.917969 526.285156 182.160156 510.109375 265.675781 C 506.972656 281.519531 520.175781 295.878906 536.1875 295.878906 L 590.320312 295.878906 C 601.378906 295.878906 611.941406 289.605469 615.410156 279.207031 C 622.507812 258.246094 642.3125 243.0625 665.582031 243.0625 C 697.601562 243.0625 723.183594 271.78125 717.738281 304.789062 C 713.449219 330.703125 689.019531 348.691406 662.613281 348.691406 L 111.023438 348.691406 C 96.5 348.691406 84.617188 360.578125 84.617188 375.101562 L 84.617188 427.914062 C 84.617188 442.441406 96.5 454.324219 111.023438 454.324219 Z M 744.804688 507.136719 L 486.835938 507.136719 C 518.691406 534.535156 541.632812 571.175781 552.527344 612.769531 L 744.804688 612.769531 C 788.542969 612.769531 824.027344 648.253906 824.027344 691.992188 C 824.027344 735.730469 788.542969 771.214844 744.804688 771.214844 C 715.261719 771.214844 689.84375 754.875 676.148438 730.941406 C 671.359375 722.691406 661.789062 718.398438 652.214844 718.398438 L 596.429688 718.398438 C 578.4375 718.398438 565.070312 736.222656 571.175781 753.222656 C 600.554688 836.738281 687.535156 893.183594 784.746094 872.554688 C 852.746094 858.195312 908.699219 803.894531 924.542969 736.058594 C 952.765625 615.246094 861.164062 507.136719 744.804688 507.136719 Z M 744.804688 507.136719 " fill-opacity="1" fill-rule="nonzero"/></g></svg>